<svg width="160" height="25" viewBox="0 0 160 25" fill="none" xmlns="http://www.w3.org/2000/svg">
<path fill-rule="evenodd" clip-rule="evenodd" d="M15.1422 7.50533C14.4896 6.34323 13.4835 5.76218 12.1251 5.76218H11.7631C10.165 5.91828 8.79565 6.8326 7.65758 8.50637C6.73986 9.87908 6.07276 11.4711 5.65627 13.2824C5.27369 14.8917 5.19499 16.3004 5.41776 17.5083C5.67927 18.9269 6.41418 19.6355 7.62005 19.6355C8.89856 19.6355 10.0754 19.1598 11.1517 18.2083C11.6432 17.7685 12.0634 17.289 12.4145 16.7674C12.7644 16.2458 13.038 15.6648 13.2317 15.0243L18.0624 16.205C17.5891 17.4117 16.9837 18.5193 16.2488 19.5252C15.5139 20.5312 14.6349 21.4604 13.6119 22.3103C11.3866 24.103 9.01842 25 6.50619 25C3.04719 25 0.96476 23.0933 0.260125 19.2787C-0.124882 17.1924 -0.0825068 15.1482 0.38725 13.1449C1.12457 9.82457 2.6077 6.89207 4.83783 4.34982C7.42149 1.44953 10.2824 0 13.4206 0C16.9341 0 19.2066 1.65519 20.2381 4.9668L15.1422 7.50533Z" fill="#FEFEFE"/>
<path fill-rule="evenodd" clip-rule="evenodd" d="M40.4762 0C40.1859 1.4332 39.8191 3.20073 39.3746 5.30259C38.9312 7.40325 38.3998 9.89697 37.7804 12.7813C37.1153 15.6477 35.7623 18.1558 33.719 20.3056C31.4403 22.6424 28.9376 23.8095 26.2133 23.8095C22.9975 23.8095 21.0777 22.072 20.4503 18.5944C19.896 15.5147 20.4274 10.7418 22.0467 4.27323C22.1507 3.82266 22.2901 3.27143 22.4638 2.62074C22.6375 1.97125 22.8432 1.18155 23.0809 0.252847L28.0908 0.172559C27.8086 1.36729 27.468 2.85201 27.0715 4.62554C26.6738 6.39906 26.219 8.5117 25.707 10.9623C25.2556 13.5111 25.1288 15.3386 25.3276 16.4446C25.5893 17.8946 26.2898 18.6208 27.4292 18.6208C28.7285 18.6208 29.8553 18.0144 30.8095 16.8029C31.6106 15.7676 32.1557 14.5333 32.4459 13.0989L35.1749 0.0790895L40.4762 0Z" fill="#FEFEFE"/>
<path fill-rule="evenodd" clip-rule="evenodd" d="M53.5056 6.95313C53.2421 5.73072 51.8972 5.12012 49.4711 5.12012H48.9866L47.7942 5.17407L46.8678 5.25009L48.5766 6.07893L47.0178 12.7918C48.4619 12.6115 49.8115 12.1137 51.0665 11.2984C52.5236 10.3298 53.3413 9.22508 53.5186 7.9855C53.5588 7.52326 53.554 7.17996 53.5056 6.95313ZM59.4084 4.34527C59.6412 5.423 59.5218 6.60863 59.0503 7.90338C58.0435 10.6376 56.3559 12.8825 53.9866 14.6395C51.6739 16.296 48.9807 17.3234 45.9082 17.7219L44.3802 24.6469L39.2857 25C39.8648 22.4657 40.5336 19.5795 41.2923 16.3438C42.051 13.1069 42.877 9.43845 43.7728 5.33718C43.4762 5.38254 43.1937 5.43404 42.9231 5.49289C42.6513 5.55174 39.8813 6.0434 39.6426 6.10716L39.7383 1.09613C40.6412 0.870525 44.1911 0.272192 45.3587 0.16307C46.5262 0.0551741 47.8297 0 49.2691 0C55.4035 0 58.7832 1.44924 59.4084 4.34527Z" fill="#FEFEFE"/>
<mask id="mask0" mask-type="alpha" maskUnits="userSpaceOnUse" x="58" y="0" width="21" height="25">
<path fill-rule="evenodd" clip-rule="evenodd" d="M58.4306 0.105927H78.5137V24.1558H58.4306V0.105927Z" fill="white"/>
</mask>
<g mask="url(#mask0)">
<path fill-rule="evenodd" clip-rule="evenodd" d="M73.4544 7.58197C72.9286 6.32482 71.8593 5.69625 70.2465 5.69625H69.8916C67.9393 5.84625 66.3217 7.21292 65.0388 9.79744C63.827 12.2058 63.4212 14.4641 63.8187 16.5748C64.1226 18.1915 64.9545 18.9998 66.3122 18.9998C67.9951 18.9998 69.5118 18.0022 70.8624 16.007C72.194 14.0998 72.6948 12.2713 72.3649 10.5224C72.2593 9.95935 72.048 9.41887 71.7311 8.90101L73.4544 7.58197ZM76.8807 6.09274C77.2996 6.87488 77.5809 7.6475 77.7245 8.41298C77.9357 9.52964 77.8681 10.8915 77.5227 12.4999C76.8807 15.4189 75.4126 18.0463 73.1197 20.3844C70.6049 22.8987 67.8883 24.1558 64.9711 24.1558C63.2004 24.1558 61.7774 23.6463 60.6998 22.6261C59.6685 21.6154 58.9861 20.2261 58.6526 18.4594C58.3167 16.6749 58.3618 14.7773 58.7891 12.7642C59.4798 9.54631 60.9562 6.71179 63.2194 4.25941C65.7295 1.49036 68.5707 0.105835 71.7442 0.105835C75.1871 0.105835 77.4444 1.68798 78.5137 4.85226L76.8807 6.09274Z" fill="#FEFEFE"/>
</g>
<path fill-rule="evenodd" clip-rule="evenodd" d="M98.8095 1.96275C96.7686 9.24423 95.3125 16.4011 94.44 23.4308L89.2666 24.1751L84.9954 14.5239C84.6367 16.1481 84.2815 17.7882 83.9287 19.4442C83.5771 21.1002 83.2504 22.8258 82.9497 24.6211L77.381 25C77.961 21.6257 78.5932 18.3113 79.2775 15.0579C79.9629 11.8058 80.7028 8.53173 81.4983 5.23807L80.6436 3.35721L86.2822 0L90.8577 12.1688C91.6047 7.65668 92.6181 3.61874 93.8978 0.053774L98.8095 1.96275Z" fill="#FEFEFE"/>
<path fill-rule="evenodd" clip-rule="evenodd" d="M105.127 7.64473C104.726 8.57473 104.233 9.71302 103.649 11.0584C103.065 12.4037 102.38 14.0204 101.592 15.9058C102.12 15.8525 102.703 15.8259 103.34 15.8259C103.95 15.8259 104.508 15.8525 105.013 15.9058C104.988 14.9673 104.987 13.8145 105.009 12.4461C105.032 11.0778 105.072 9.4781 105.127 7.64473ZM110.714 0C110.095 6.81279 110.011 14.6682 110.463 23.565L104.815 25L104.854 20.735C103.904 20.574 102.96 20.4929 102.024 20.4929C101.697 20.4929 101.357 20.5062 101.004 20.534C100.65 20.5607 100.265 20.5922 99.847 20.6273L98.3788 24.9721L92.8571 24.8111C94.0906 21.6202 95.5946 17.9692 97.3693 13.8605C99.1428 9.75297 101.211 5.57883 103.57 0.463793L110.714 0Z" fill="#FEFEFE"/>
<path fill-rule="evenodd" clip-rule="evenodd" d="M128.338 5.35966L120.885 5.46788L123.134 6.44667C122.236 9.77822 121.476 12.8423 120.8 15.8504C120.125 18.8573 119.556 21.4824 119.093 24.3106L113.704 25C113.939 23.4023 114.2 21.2295 114.484 19.6549C114.768 18.0791 115.078 16.5106 115.417 14.9482C115.755 13.3858 116.122 11.8234 116.515 10.2609C116.91 8.69972 117.339 7.12879 117.804 5.54813L109.524 5.7755L110.911 0.429211L129.762 0L128.338 5.35966Z" fill="#FEFEFE"/>
<path fill-rule="evenodd" clip-rule="evenodd" d="M139.312 5.07784C137.804 5.02432 136.513 4.99757 135.441 4.99757H134.26L136.387 5.94016C135.87 7.99684 135.406 10.1387 134.994 12.3656C134.582 14.5926 134.181 16.9448 133.788 19.4235L136.334 19.3967L135.503 24.1657H134.939C133.145 24.1657 132.178 24.235 130.398 24.3748C128.617 24.5135 126.818 24.7227 125 25L125.828 20.2189L128.416 19.8686C128.731 17.6137 129.138 15.2664 129.637 12.8229C130.136 10.3807 130.739 7.81683 131.447 5.13135C130.952 5.16784 130.497 5.1946 130.086 5.21284C129.674 5.23109 128.497 5.35393 128.152 5.39042L129.293 0.459742C130.518 0.334468 132.511 0.14595 133.674 0.0863537C134.835 0.02919 135.176 0 136.332 0C137.119 0 137.855 0.0133787 138.538 0.0401362C139.221 0.0668937 139.867 0.0985162 140.476 0.133787L139.312 5.07784Z" fill="#FEFEFE"/>
<path fill-rule="evenodd" clip-rule="evenodd" d="M154.428 7.50533C153.775 6.34323 152.769 5.76218 151.411 5.76218H151.049C149.451 5.91828 148.081 6.8326 146.943 8.50637C146.026 9.87908 145.358 11.4711 144.942 13.2824C144.559 14.8917 144.481 16.3004 144.703 17.5083C144.965 18.9269 145.7 19.6355 146.907 19.6355C148.184 19.6355 149.361 19.1598 150.437 18.2083C150.929 17.7685 151.349 17.289 151.7 16.7674C152.05 16.2458 152.324 15.6648 152.517 15.0243L157.348 16.205C156.875 17.4117 156.269 18.5193 155.535 19.5252C154.8 20.5312 153.921 21.4604 152.899 22.3103C150.672 24.103 148.304 25 145.792 25C142.333 25 140.25 23.0933 139.546 19.2787C139.161 17.1924 139.203 15.1482 139.673 13.1449C140.41 9.82457 141.893 6.89207 144.124 4.34982C146.707 1.44953 149.568 0 152.706 0C156.22 0 158.492 1.65519 159.524 4.9668L154.428 7.50533Z" fill="#FEFEFE"/>
</svg>
